<svg width="60" height="60" viewBox="0 0 60 60" fill="none" xmlns="http://www.w3.org/2000/svg">
<g clip-path="url(#clip0_239_298)">
<path d="M52.5 35C51.837 35 51.2011 35.2634 50.7322 35.7322C50.2634 36.2011 50 36.837 50 37.5V47.5C50 48.163 49.7366 48.7989 49.2678 49.2678C48.7989 49.7366 48.163 50 47.5 50H12.5C11.837 50 11.2011 49.7366 10.7322 49.2678C10.2634 48.7989 10 48.163 10 47.5V37.5C10 36.837 9.73661 36.2011 9.26777 35.7322C8.79893 35.2634 8.16304 35 7.5 35C6.83696 35 6.20107 35.2634 5.73223 35.7322C5.26339 36.2011 5 36.837 5 37.5V47.5C5 49.4891 5.79018 51.3968 7.1967 52.8033C8.60322 54.2098 10.5109 55 12.5 55H47.5C49.4891 55 51.3968 54.2098 52.8033 52.8033C54.2098 51.3968 55 49.4891 55 47.5V37.5C55 36.837 54.7366 36.2011 54.2678 35.7322C53.7989 35.2634 53.163 35 52.5 35ZM28.225 39.275C28.4628 39.5026 28.7431 39.681 29.05 39.8C29.3493 39.9323 29.6728 40.0006 30 40.0006C30.3272 40.0006 30.6507 39.9323 30.95 39.8C31.2569 39.681 31.5372 39.5026 31.775 39.275L41.775 29.275C42.2458 28.8042 42.5102 28.1658 42.5102 27.5C42.5102 26.8342 42.2458 26.1958 41.775 25.725C41.3042 25.2542 40.6658 24.9898 40 24.9898C39.3342 24.9898 38.6958 25.2542 38.225 25.725L32.5 31.475V7.5C32.5 6.83696 32.2366 6.20107 31.7678 5.73223C31.2989 5.26339 30.663 5 30 5C29.337 5 28.7011 5.26339 28.2322 5.73223C27.7634 6.20107 27.5 6.83696 27.5 7.5V31.475L21.775 25.725C21.5419 25.4919 21.2652 25.307 20.9606 25.1809C20.6561 25.0547 20.3296 24.9898 20 24.9898C19.6704 24.9898 19.3439 25.0547 19.0394 25.1809C18.7348 25.307 18.4581 25.4919 18.225 25.725C17.9919 25.9581 17.807 26.2348 17.6809 26.5394C17.5547 26.8439 17.4898 27.1704 17.4898 27.5C17.4898 27.8296 17.5547 28.1561 17.6809 28.4606C17.807 28.7652 17.9919 29.0419 18.225 29.275L28.225 39.275Z" fill="white"/>
</g>
<defs>
<clipPath id="clip0_239_298">
<rect width="60" height="60" fill="white"/>
</clipPath>
</defs>
</svg>
