<svg id="SvgjsSvg1001" width="288" height="288" xmlns="http://www.w3.org/2000/svg" version="1.1" xmlns:xlink="http://www.w3.org/1999/xlink" xmlns:svgjs="http://svgjs.com/svgjs"><defs id="SvgjsDefs1002"></defs><g id="SvgjsG1008"><svg xmlns="http://www.w3.org/2000/svg" viewBox="0 0 1024 1024" width="288" height="288"><path d="M907.9 875.8H116.7c-2.6 0-5.2-.1-7.8-.5 2.7.4 5.3.7 8 1.1-4.5-.7-8.8-1.8-12.9-3.5l7.2 3c-2.8-1.2-5.5-2.6-8.1-4.3-5.6-3.7 2.9 2.7 1.3 1.2-1.1-1.1-2.3-2-3.4-3.1-.9-.9-1.8-1.9-2.7-2.9-3.3-3.6 4.8 6.9.8.8-1.7-2.6-3.1-5.3-4.3-8.1l3 7.2c-1.7-4.2-2.9-8.5-3.5-12.9.4 2.7.7 5.3 1.1 8-1-7.8-.5-16-.5-23.9V170.1c0-2.6.2-5.1.5-7.7-.4 2.7-.7 5.3-1.1 8 .7-4.5 1.8-8.8 3.5-12.9l-3 7.2c1.2-2.8 2.6-5.5 4.3-8.1 3.7-5.6-2.7 2.9-1.2 1.3 1.1-1.1 2-2.3 3.1-3.4.9-.9 1.9-1.8 2.9-2.7 3.6-3.3-6.9 4.8-.8.8 2.6-1.7 5.3-3.1 8.1-4.3l-7.2 3c4.2-1.7 8.5-2.9 12.9-3.5-2.7.4-5.3.7-8 1.1 9.8-1.2 20.1-.5 30-.5h198.2c11.8 0 24.2-1 35.9.4-2.7-.4-5.3-.7-8-1.1 3.6.6 6.9 1.5 10.3 2.8l-7.2-3c2.4 1 4.5 2.3 6.7 3.5 5 2.7-5.3-5-1.2-1 .9.9 1.9 1.7 2.8 2.6.7.7 1.4 1.5 2.1 2.3 1.4 1.6 2.8 3.2 4.2 4.9 6.2 7.2 12.5 14.4 18.7 21.5 17.5 20.2 35.1 40.4 52.6 60.6 6.8 7.8 13.5 15.6 20.3 23.4 7.9 9.2 13.8 16.5 28.3 17 7.3.2 14.7 0 22 0h293.8c29.5 0 59-.1 88.4 0 2.6 0 5.2.2 7.8.5-2.7-.4-5.3-.7-8-1.1 4.5.7 8.8 1.8 12.9 3.5l-7.2-3c2.8 1.2 5.5 2.6 8.1 4.3 5.6 3.7-2.9-2.7-1.3-1.2 1.1 1.1 2.3 2 3.4 3.1.9.9 1.8 1.9 2.7 2.9 3.3 3.6-4.8-6.9-.8-.8 1.7 2.6 3.1 5.3 4.3 8.1l-3-7.2c1.7 4.2 2.9 8.5 3.5 12.9-.4-2.7-.7-5.3-1.1-8 .8 6.7.5 13.6.5 20.4v472.1c0 21.9.2 43.8 0 65.7 0 2.5-.2 5-.5 7.5.4-2.7.7-5.3 1.1-8-.7 4.5-1.8 8.8-3.5 12.9l3-7.2c-1.2 2.8-2.7 5.5-4.3 8.1-3.7 5.6 2.7-2.9 1.2-1.3-1.1 1.1-2 2.3-3.1 3.4-.9.9-1.9 1.8-2.9 2.7-3.6 3.3 6.9-4.8.8-.8-2.6 1.7-5.3 3.1-8.1 4.3l7.2-3c-4.2 1.7-8.5 2.9-12.9 3.5 2.7-.4 5.3-.7 8-1.1-2 .2-4.3.3-6.7.3-15.7.2-30.7 13.6-30 30 .7 16.1 13.2 30.2 30 30 25.2-.3 48.6-11.7 64-31.7 11.1-14.3 16.9-31.5 17.1-49.7.1-5.6 0-11.1 0-16.7V338.7c0-26.8 3-56-12.8-79.4-14.9-22.1-37.5-35-64.1-37.2-2.7-.2-5.4-.2-8.1-.2H502.8c7.1 2.9 14.1 5.9 21.2 8.8-23.1-26.6-46.2-53.3-69.3-79.9-10.8-12.4-21.5-24.8-32.3-37.3C407.2 96 385.9 88 363.1 88H131.5c-14.7 0-29.4-.5-43.3 5.1-23.7 9.4-40.9 27.1-49.3 51.2-2.8 8.2-3.9 17.2-3.9 25.8-.1 16.1 0 32.3 0 48.4V824.5c0 18.8-2 40.3 5.1 57.9 9.5 23.5 26.7 40.4 50.6 49.1 8.3 3 17.5 4.1 26.3 4.1h790.9c15.7 0 30.7-13.8 30-30-.7-16-13.1-29.8-30-29.8z" fill="#b1b1b1" class="color000 svgShape"></path><path d="M907.9 875.8H116.7c-2.6 0-5.2-.1-7.8-.5 2.7.4 5.3.7 8 1.1-4.5-.7-8.8-1.8-12.9-3.5l7.2 3c-2.8-1.2-5.5-2.6-8.1-4.3-5.6-3.7 2.9 2.7 1.3 1.2-1.1-1.1-2.3-2-3.4-3.1-.9-.9-1.8-1.9-2.7-2.9-3.3-3.6 4.8 6.9.8.8-1.7-2.6-3.1-5.3-4.3-8.1l3 7.2c-1.7-4.2-2.9-8.5-3.5-12.9.4 2.7.7 5.3 1.1 8-.8-6.7-.5-13.6-.5-20.4V369.3c0-21.9-.2-43.8 0-65.7 0-2.5.2-5 .5-7.5-.4 2.7-.7 5.3-1.1 8 .7-4.5 1.8-8.8 3.5-12.9l-3 7.2c1.2-2.8 2.6-5.5 4.3-8.1 3.7-5.6-2.7 2.9-1.2 1.3 1.1-1.1 2-2.3 3.1-3.4.9-.9 1.9-1.8 2.9-2.7 3.6-3.3-6.9 4.8-.8.8 2.6-1.7 5.3-3.1 8.1-4.3l-7.2 3c4.2-1.7 8.5-2.9 12.9-3.5-2.7.4-5.3.7-8 1.1 8.8-1.1 17.9-.5 26.7-.5H906.9c2.6 0 5.2.1 7.8.5-2.7-.4-5.3-.7-8-1.1 4.5.7 8.8 1.8 12.9 3.5l-7.2-3c2.8 1.2 5.5 2.6 8.1 4.3 5.6 3.7-2.9-2.7-1.3-1.2 1.1 1.1 2.3 2 3.4 3.1.9.9 1.8 1.9 2.7 2.9 3.3 3.6-4.8-6.9-.8-.8 1.7 2.6 3.1 5.3 4.3 8.1l-3-7.2c1.7 4.2 2.9 8.5 3.5 12.9-.4-2.7-.7-5.3-1.1-8 .8 6.7.5 13.6.5 20.4v472.1c0 21.9.2 43.8 0 65.7 0 2.5-.2 5-.5 7.5.4-2.7.7-5.3 1.1-8-.7 4.5-1.8 8.8-3.5 12.9l3-7.2c-1.2 2.8-2.7 5.5-4.3 8.1-3.7 5.6 2.7-2.9 1.2-1.3-1.1 1.1-2 2.3-3.1 3.4-.9.9-1.9 1.8-2.9 2.7-3.6 3.3 6.9-4.8.8-.8-2.6 1.7-5.3 3.1-8.1 4.3l7.2-3c-4.2 1.7-8.5 2.9-12.9 3.5 2.7-.4 5.3-.7 8-1.1-2.1.4-4.4.5-6.8.5-15.7.2-30.7 13.6-30 30 .7 16.1 13.2 30.2 30 30 35.5-.5 65.6-23 77.2-56.3 3.1-9 3.9-18.8 3.9-28.3V303c-.2-14.8-4.1-30.1-12.1-42.6-10-15.7-24-26.5-41.1-33.4-13-5.3-26.7-5.1-40.4-5.1H120.1c-2.3 0-4.7 0-7 .1-34.7 2-65.2 25.1-75 59-3.9 13.4-3.1 27.7-3.1 41.5v507.7c0 8.2-.1 16.4 0 24.6.2 15.6 4.5 31.9 13.6 44.8 10.6 15.1 24.3 25.5 41.5 31.9 9 3.4 18.8 4.3 28.4 4.3H908.1c15.7 0 30.7-13.8 30-30-.9-16.2-13.3-30-30.2-30z" fill="#b1b1b1" class="color000 svgShape"></path></svg></g></svg>