<svg id="SvgjsSvg1011" width="288" height="288" xmlns="http://www.w3.org/2000/svg" version="1.1" xmlns:xlink="http://www.w3.org/1999/xlink" xmlns:svgjs="http://svgjs.com/svgjs"><defs id="SvgjsDefs1012"></defs><g id="SvgjsG1013"><svg xmlns="http://www.w3.org/2000/svg" viewBox="0 0 8.467 8.467" width="288" height="288"><path d="M5.816.792a.265.265 0 0 0-.038.004h-4.72a.265.265 0 0 0-.265.266v5.555c0 .581.477 1.057 1.059 1.057h4.763a.265.265 0 0 0 .095-.01c.537-.05.964-.498.964-1.047V4.5a.265.265 0 0 0-.266-.264H6.086V1.062a.265.265 0 0 0-.27-.27Zm-4.494.534h4.235V4.45a.265.265 0 0 0 0 .092v2.074c0 .193.056.373.148.529H1.852a.522.522 0 0 1-.53-.53zm.768 1.059a.265.265 0 0 0 .027.529h2.644a.265.265 0 1 0 0-.53H2.117a.265.265 0 0 0-.027 0zm0 1.058a.265.265 0 0 0 .027.53h2.644a.265.265 0 1 0 0-.53H2.117a.265.265 0 0 0-.027 0zM2.117 4.5a.265.265 0 1 0 0 .529h2.644a.265.265 0 1 0 0-.53zm3.969.265h1.059v1.852c0 .296-.23.528-.527.529a.265.265 0 0 0-.003 0 .522.522 0 0 1-.53-.53zm-3.995.793a.265.265 0 0 0-.001 0 .265.265 0 0 0 .027.53h2.644a.265.265 0 1 0 0-.53H2.117a.265.265 0 0 0-.026 0z" color="#000" font-family="sans-serif" font-weight="400" overflow="visible" style="line-height:normal;font-variant-ligatures:normal;font-variant-position:normal;font-variant-caps:normal;font-variant-numeric:normal;font-variant-alternates:normal;font-feature-settings:normal;text-indent:0;text-align:start;text-decoration-line:none;text-decoration-style:solid;text-decoration-color:#000;text-transform:none;text-orientation:mixed;shape-padding:0;isolation:auto;mix-blend-mode:normal" fill="#ffffff" class="color000 svgShape"></path></svg></g></svg>